<svg xmlns="http://www.w3.org/2000/svg" viewBox="0 0 1600 900" role="img" aria-labelledby="t d"><title id="t">Australia international education</title><desc id="d">Stylized Sydney harbour and university visual</desc><defs><linearGradient id="g" x1="0" y1="0" x2="1" y2="1"><stop stop-color="#0b2447"/><stop offset="1" stop-color="#2a7ab0"/></linearGradient><linearGradient id="s" x1="0" y1="0" x2="0" y2="1"><stop stop-color="#f4d28c"/><stop offset="1" stop-color="#c88b2a"/></linearGradient></defs><rect width="1600" height="900" fill="url(#g)"/><circle cx="1320" cy="160" r="110" fill="#f7d991" opacity=".9"/><path d="M0 650C220 610 360 705 570 665s390-20 520 15 330-5 510-35V900H0Z" fill="#153b62"/><path d="M610 660c35-160 95-265 155-330 40 105 45 220 18 330Z" fill="#f7f2e8"/><path d="M785 660c45-180 105-290 190-360 45 95 62 220 38 360Z" fill="#f4eadb"/><path d="M515 664c60-118 125-210 190-255 20 100 10 185-20 255Z" fill="#fff" opacity=".92"/><path d="M470 666h610" stroke="#d9b567" stroke-width="14"/><rect x="90" y="110" width="530" height="235" rx="26" fill="#08182d" opacity=".6"/><text x="140" y="205" fill="#fff" font-family="Arial, sans-serif" font-size="54" font-weight="700">AUSTRALIA</text><text x="140" y="270" fill="#f5d795" font-family="Arial, sans-serif" font-size="31">International Education</text><text x="140" y="318" fill="#d9e6f1" font-family="Arial, sans-serif" font-size="23">Policy · Mobility · Universities</text></svg>